<?xml version="1.0" encoding="UTF-8"?>
<svg id="Layer_2" data-name="Layer 2" xmlns="http://www.w3.org/2000/svg" viewBox="0 0 563.23 464.66">
  <g id="gentrace-sample-file-last-art">
    <path d="M337.13,417.23c-4.51,1.36-23.6.38-28.98-3.11l-13.9-9.03-9.01,4.27-17.21-.1c-5.5,3.02-12.22,8.1-18.43,8.33l-11.47.42c-13.15-6.12-26.9-5.82-40.93-1.95-5.89,1.63-8.91,5.48-8.36,12.15l-6.16,8.05-12.18,10.31c-5.61,4.75-12.66,7.33-19.29,10.95l-14.07,2.75-17.83,2.97c-11.97,1.99-25.43,1.78-37.61.06-7.38-1.04-14.18-3.28-21.16-4.7-5.15-1.05-11.1-7.19-15.54-10.3-16.93-11.85-20.08-26.78-22.37-45.46-8.17-9.05-9.26-20.9-9.31-32.32-4.69-10.62-8.5-21.2-11.13-32.16l4.18-25.1c.53-3.16-2.54-8.59-3.06-11.43l-3.08-16.83c-1.16-6.32,2.45-13.91,3.73-20.13,2.52-12.27,5.33-28.47,14.4-32.68-2.74-13.8,2.11-26.21,6.28-39.17l8.03-24.97c1.12-3.5,4.31-7.34,6.72-10.43,1.7-8.2,1.55-19,6.45-26.07,2.81-4.05,6.13-7.33,8.4-11.54,3.83-7.1,9.48-12.28,14.72-18.01,5.6-6.13,10.68-11.8,17.29-17.01,6.24-4.92,9.69-12.04,14.17-18.77,8.36-12.56,17.31-12.29,21.83-17.78,5.13-6.24,10.7-12.44,17.98-16.07l30.36-8.39,19.74-12.74C204.55,5.04,217.99,1.37,233.64.1c9.19-.75,17.92,2.83,26.66,6.17,7.35,2.81,16.16,13.97,18.58,23.83l2.86,5.5c3.25-.58,5.28-1.44,7.18-2.86C293.28,11.35,315.53-.1,337.78,1.83c12.08,1.05,24.64,2.53,34.23,9.46l22.04,15.93c1.95,1.41,6.12-.05,8.27.03,7.93.28,16.41,3.71,23.52,6.66,7.97,6.54,14.67,12.31,20.29,20.04,6.77,3.54,12.76,8.42,16.11,15.25l10.54,13.86,4.47,10.12c11.96-.29,19.46,7.58,26.93,15.61,7.41,7.96,9.36,18.51,12.7,28.96l3.66,11.46c5.94,8.05,10.23,16.31,14.76,25.28l6.23,12.35c7.79,15.45,1.44,26.36,2.85,40.45.71,7.1,2.09,12.81,9.44,15.81l5.97,13.67,3.27,27.46c1.12,9.4-3.38,18.46-6.96,26.32,9.51,17.67,9.59,39.94-5.38,53.66l-4.58,6.53c3.79,12.47,3.64,24.13-.12,36.68-1.21,4.05-6.24,8.46-8.03,12.29l-8.71,18.59c-2.7,5.77-7.64,9.47-11.98,13.48-8.04,7.44-16.22,11.3-27.29,11.29h-15.82c-2.67,0-7.86.96-10.84,1.58l-33.23-4.5c-14.45-1.96-29.21-6.44-38.84-17.71l-14.87-17.42c-3.55-4.16-4.84-7.48-9.87-9.5l-10.19-4.09-19.22,5.81Z"/>
  </g>
</svg>